<?xml version="1.0" encoding="UTF-8"?><svg id="b" xmlns="http://www.w3.org/2000/svg" width="266.358" height="349.861" viewBox="0 0 266.358 349.861"><defs><style>.d{fill:#bdbdbd;}.e{fill:#211715;}.f{fill:#fff;}.g{fill:#645d5c;}</style></defs><g id="c"><path class="g" d="M95.797,164.778c5.052-1.795,9.831-4.983,13.506-10.171-5.878-2.699-11.276-7.088-16.096-12.858-5.498-6.58-8.601-13.9-10.423-20.346-1.171-.181-2.055-.317-2.055-.317-2.326-.357-4.515-1.415-6.302-2.841-.319-.258-.625-.527-.92-.805-1.46,2.679-2.529,5.774-3.036,9.638-.225,1.838-.338,3.863-.3,6.095.075,4.838,1.294,9.789,1.538,14.627.225,4.838-1.782,10.37-6.376,11.927-2.091,3.369,15.402,10.402,30.465,5.05Z"/><path class="f" d="M186.765,88.197c1.663-1.501,4.128-2.226,6.433-1.882s4.403,1.734,5.458,3.629c.745,1.328.986,2.841,1.124,4.317.505,5.818-.642,11.747-3.279,17.048-1.284,2.583-2.958,5.055-5.286,6.937-1.788,1.426-3.976,2.483-6.302,2.841l-1.07.164c-.529,1.947-1.108,3.571-1.392,4.434-1.799,4.883-11.703,21.545-24.267,28.121.976,4.282.187,8.266,6.055,10.385.356.129,6.407,2.489,6.951,2.713,0,0,4.148,37.566-39.185,37.566-45.778,0-33.826-38.975-33.826-38.975,1.036-.353,3.538-1.176,3.894-1.304,5.433-1.962,5.16-6.356,5.864-10.254-5.351-2.724-10.285-6.87-14.729-12.189-5.499-6.581-8.602-13.903-10.424-20.349-1.279-.194-2.054-.313-2.054-.313-2.326-.357-4.515-1.415-6.302-2.841-2.328-1.882-4.002-4.354-5.286-6.937-2.637-5.301-3.784-11.23-3.279-17.048.138-1.476.378-2.989,1.124-4.317,1.055-1.894,3.153-3.284,5.458-3.629s4.77.381,6.433,1.882c0,0-6.205-47.058,54.24-47.058s53.65,47.058,53.65,47.058Z"/><path class="f" d="M142.437,192.439c-2.639.236-5.52.378-8.63.378-18.467,0-28.813-5-28.813-5l-.25-.117c1.231,3.725,2.618,7.66,4.157,11.674,8.987,23.435,21.659,49.742,28.005,63.446l.286.523c7.167-17.409,16.201-42.766,22.643-64.26,1.18-3.937,2.216-7.762,3.118-11.363l-.333.097s-7.154,3.457-20.183,4.622Z"/><path class="e" d="M71.435,116.229c-2.219,4.138-3.304,8.647-3.59,13.318-.315,5.145.617,10.112,1.199,15.198.415,3.624.576,7.657-1.783,10.721-.393.511-.874.979-1.406,1.343-.892.609-2.021.753-2.615,1.739-.5.83-.58,1.835-.342,2.759.421,1.639,1.962,2.836,3.327,3.676,1.813,1.115,3.88,1.883,5.914,2.484,5.58,1.648,11.576,2.044,17.332,1.264,7.703-1.044,14.937-4.536,20.032-10.494.842-.985.967-2.427,0-3.394-.862-.862-2.548-.989-3.394,0-5.061,5.918-12.314,8.955-19.767,9.408-3.4.207-6.673-.02-9.696-.62-1.435-.285-2.856-.648-4.245-1.109-.566-.188-1.124-.397-1.679-.616-.571-.225.319.145-.024-.01-.136-.061-.272-.121-.407-.184-.257-.119-.511-.244-.762-.375-.49-.256-.945-.556-1.415-.846-.533-.329.321.344-.168-.129-.14-.136-.289-.3-.44-.423-.41-.332.268.46.02.032-.332-.573.123.52,0,.061-.124-.467.017.688.035.219-.03.789-.11.616-.045.404.06-.196-.343.68-.113.285l-1.434,1.103c3.463-1.257,5.769-3.93,7.067-7.323,1.411-3.69,1.134-7.555.633-11.391-1.09-8.344-2.243-16.929,1.911-24.676,1.46-2.722-2.683-5.149-4.145-2.423h0Z"/><path class="g" d="M159.161,53.745c1.907,6.335,4.869,14.479,7.068,18.121,2.997,4.962,11.142,15.799,18.914,18.744,1.087-3.069,4.737-4.79,8.055-4.295.341.051.677.125,1.003.227,4.527-10.419,2.242-28.029.434-36.812C189.044,22.518,161.432.918,132.477,2.496c-28.956-1.578-56.568,20.021-62.158,47.233-1.515,7.339-1.333,19.895.044,25.754l2.167,10.826c3.014-.422,6.282.982,7.658,3.547,10.931-8.272,30.106-20.214,39.594-28.103-.827,4.96-3.765,13.397-.064,12.53,15.541-3.479,30.432-10.516,39.369-21.507"/><path class="e" d="M72.676,74.845c-.729-3.183-.904-6.464-.991-9.807-.101-3.886.007-7.797.46-11.66.822-7.01,3.514-13.821,7.168-19.82,7.627-12.52,20.084-22.072,34.105-26.317,3.502-1.06,7.109-1.825,10.754-2.172,3.835-.365,7.722-.272,11.568-.253,7.423.037,14.835,1.635,21.665,4.535,13.462,5.716,24.873,16.318,31.128,29.578,2.873,6.091,4.27,12.705,5.105,19.355.926,7.379,1.438,15.205-.156,22.527-.373,1.711-.878,3.387-1.557,5.002-.503,1.195.541,2.64,1.676,2.952,1.385.381,2.448-.476,2.952-1.676,3.053-7.261,3.009-15.786,2.42-23.508-.55-7.22-1.553-14.674-3.995-21.52-5.33-14.94-16.735-27.407-30.728-34.747-7.146-3.748-14.908-6.147-22.935-6.99-3.956-.415-7.954-.314-11.924-.308-4.044.007-8.099.457-12.058,1.276-15.598,3.226-29.683,12.593-39.133,25.343-4.609,6.218-8.067,13.385-9.858,20.925-1.805,7.6-1.902,15.863-1.07,23.603.179,1.662.401,3.327.775,4.958.689,3.01,5.318,1.736,4.629-1.276h0Z"/><path class="e" d="M156.847,54.383c1.143,3.777,2.413,7.52,3.86,11.192,1.141,2.896,2.345,5.794,4.025,8.425,3.353,5.25,7.448,10.311,12.248,14.302,2.753,2.289,5.871,4.409,9.424,5.179,3.012.653,4.298-3.973,1.276-4.629-5.529-1.198-10.114-6.164-13.684-10.37-3.476-4.095-6.357-8.463-8.369-13.454-1.573-3.902-2.932-7.895-4.15-11.921-.892-2.949-5.527-1.692-4.629,1.276h0Z"/><path class="e" d="M157.39,51.078c-5.126,6.248-11.814,10.879-19.054,14.37-3.75,1.808-7.653,3.281-11.631,4.503-2.117.65-4.256,1.229-6.411,1.738-.202.048-.405.095-.607.141l-.202.047c-.451.085-.542.111-.272.078.056-.097-.064-.036.135.011.172.041.329.066.488.159.244.143.306.285.476.478-.232-.263.009.067.053.148-.037-.068-.083-.285-.083-.343,0,.359.009.196.016-.065.088-3.179,1.219-6.585,1.798-9.952.415-2.412-2.112-3.908-4.011-2.335-4.805,3.98-10.039,7.546-15.213,11.1-5.901,4.053-11.86,8.024-17.716,12.143-2.896,2.037-5.761,4.116-8.543,6.305-1.02.802-.84,2.554,0,3.394,1.007,1.007,2.372.804,3.394,0,10.444-8.216,22.246-15.357,33.158-23.207,2.829-2.035,5.63-4.117,8.315-6.341l-4.011-2.335c-.614,3.569-1.897,7.13-1.971,10.775-.033,1.614.354,3.377,1.805,4.305,1.722,1.101,3.89.229,5.682-.222,9.268-2.329,18.43-5.92,26.374-11.291,4.248-2.872,8.169-6.239,11.426-10.209.821-1.001.98-2.414,0-3.394-.847-.847-2.568-1.007-3.394,0h0Z"/><path class="e" d="M182.429,115.102c-.077,2.324-.615,4.588-1.277,6.809-.256.858-.538,1.708-.823,2.557-.077.23-.151.461-.235.688-.066.178-.365.846-.056.156-1.022,2.281-2.26,4.457-3.587,6.572-3.855,6.143-8.565,11.993-14.295,16.487-3.156,2.476-6.688,4.465-10.6,5.364-3.009.692-1.736,5.321,1.276,4.629,8.054-1.851,14.796-7.661,20.103-13.739,4.303-4.928,8.345-10.496,11.064-16.479,1.829-4.026,3.084-8.628,3.229-13.045.102-3.09-4.698-3.086-4.8,0h0Z"/><path class="e" d="M78.738,114.325c2.926,16.884,12.076,33.406,27.719,41.554,4.257,2.217,8.804,3.566,13.573,4.061,1.291.134,2.4-1.199,2.4-2.4,0-1.409-1.105-2.266-2.4-2.4-16.131-1.672-28.699-16.138-33.766-30.671-1.295-3.716-2.226-7.545-2.898-11.42-.221-1.278-1.79-1.996-2.952-1.676-1.351.371-1.898,1.671-1.676,2.952h0Z"/><path class="e" d="M188.462,89.894c2.305-1.969,6.208-1.603,7.936.95.914,1.35,1.001,3.188,1.069,4.761.087,2.024,0,4.073-.342,6.072-1.213,7.092-4.95,15.739-12.851,17.096-1.278.22-1.995,1.791-1.676,2.952.372,1.352,1.67,1.896,2.952,1.676,8.179-1.405,13.033-9.13,15.271-16.505,1.166-3.842,1.669-7.956,1.409-11.964-.257-3.963-1.455-7.69-5.109-9.752-3.911-2.208-8.687-1.555-12.052,1.319-.986.842-.866,2.528,0,3.394.977.977,2.405.844,3.394,0h0Z"/><path class="e" d="M80.572,86.5c-2.916-2.491-6.99-3.415-10.622-1.982-3.935,1.552-5.902,4.863-6.401,8.935-.947,7.723,1.118,16.509,5.772,22.798,2.652,3.583,6.293,6.381,10.77,7.15,1.276.219,2.585-.34,2.952-1.676.317-1.154-.392-2.732-1.676-2.952-7.899-1.357-11.638-10.004-12.851-17.096-.329-1.925-.42-3.897-.35-5.847.059-1.654.133-3.558,1.077-4.986,1.701-2.573,5.65-2.902,7.936-.95.985.841,2.427.967,3.394,0,.862-.862.99-2.549,0-3.394h0Z"/><path class="e" d="M123.459,135.142c3.19,1.684,6.627,2.386,10.233,2.363,3.641-.024,7.348-.728,10.268-3.003,1.023-.797.837-2.557,0-3.394-1.01-1.01-2.368-.799-3.394,0,.71-.553.094-.085-.088.031-.208.134-.423.257-.642.372-.151.079-.905.394-.307.166-.294.112-.586.225-.886.322-1.878.604-3.286.718-5.285.706-1.956-.012-3.214-.132-5.043-.679-.324-.097-.641-.213-.961-.323-.104-.036-.204-.09-.31-.121.59.173.169.076.013.002-.397-.187-.788-.382-1.177-.587-1.146-.605-2.61-.291-3.284.861-.634,1.084-.289,2.676.861,3.284h0Z"/><path class="e" d="M132.608,110.86c.453,1.726.887,3.479,1.147,5.246l-.086-.638c.031.242.044.481.02.724l.086-.638c-.017.113-.042.218-.08.326l.242-.573c-.034.076-.069.14-.115.209l.375-.486c-.054.066-.105.116-.171.169l.486-.375c-.133.085-.273.154-.415.22l.573-.242c-.229.095-.456.165-.7.204l.638-.086c-.221.026-.437.024-.657-.001l.638.086c-.248-.035-.491-.095-.739-.128-.67-.09-1.239-.115-1.849.242-.498.291-.973.862-1.103,1.434-.14.614-.11,1.304.242,1.849.312.484.835,1.022,1.434,1.103.538.073,1.061.21,1.609.234.827.036,1.598-.214,2.338-.551.907-.414,1.613-1.213,1.854-2.19.204-.826.115-1.565-.025-2.392-.286-1.69-.676-3.365-1.111-5.023-.318-1.214-1.729-2.072-2.952-1.676-1.25.404-2.018,1.651-1.676,2.952h0Z"/><path class="e" d="M104.588,96.079c-.876,2.847-.305,9.397,5.089,9.954,7.129-.043,7.508-7.961,5.109-11.684-1.965-3.048-7.742-4.316-10.197,1.73Z"/><path class="e" d="M161.677,96.079c.876,2.847.305,9.397-5.088,9.954-7.129-.043-7.509-7.961-5.109-11.684,1.965-3.048,7.742-4.316,10.197,1.731Z"/><path class="e" d="M105.6,153.422c-.229,1.33-.356,2.678-.639,3.999-.136.633-.384,1.227-.543,1.849.177-.693.086-.197-.017.011-.057.115-.116.229-.179.341-.084.151-.174.298-.269.442-.048.073-.097.145-.148.215-.147.199-.102.142.134-.17-.276.216-.492.554-.761.791l-.108.093c-.194.159-.147.124.143-.103-.11.001-.402.28-.503.344-.354.222-.769.498-1.173.616.588-.172-.142.041-.305.097-1.227.423-2.465.817-3.693,1.235-1.186.403-2.092,1.668-1.676,2.952.381,1.177,1.68,2.109,2.952,1.676,2.202-.749,4.711-1.295,6.638-2.645,2.316-1.622,3.643-3.979,4.188-6.724.247-1.24.372-2.499.586-3.745.213-1.233-.328-2.645-1.676-2.952-1.165-.265-2.724.353-2.952,1.676h0Z"/><path class="e" d="M171.827,164.591c-1.958-.801-3.939-1.548-5.911-2.312-.319-.124-.637-.248-.957-.369-.028-.01-.056-.021-.083-.031-.134-.051-.268-.104-.403-.152.031.011.344.159.101.043-.421-.201-.837-.402-1.233-.651-.146-.092-.45-.236-.551-.379-.007-.01.343.33.176.128-.046-.056-.12-.103-.174-.152-.147-.133-.288-.273-.422-.42-.049-.053-.094-.109-.143-.162-.29-.319.055-.04.07.097-.024-.217-.391-.608-.498-.817-.05-.098-.273-.579-.104-.203s-.052-.162-.092-.281c-.503-1.513-.624-3.125-.894-4.688-.214-1.24-1.803-2.048-2.952-1.676-1.337.433-1.906,1.623-1.676,2.952.251,1.454.376,2.944.793,4.365.496,1.689,1.396,3.29,2.757,4.431,2.197,1.843,5.174,2.659,7.816,3.69,1.035.404,2.075.799,3.103,1.219,1.165.477,2.688-.516,2.952-1.676.318-1.395-.428-2.442-1.676-2.952h0Z"/><path class="d" d="M52.418,333.491c-16.117-3.145-45.134-19.876-47.505-24.279-3.774-7.009-2.673-17.883.08-27.243,7.364-25.038,12.126-36.48,20.575-61.209,2.743-8.029,5.772-19.94,11.974-25.881,4.11-3.936,12.54-8.549,17.783-10.878,14.876-6.608,28.583-12.11,42.874-18.248l.326-.14c1.655,6.975,5.209,20.287,10.375,33.76,8.987,23.435,21.659,49.742,28.005,63.446l.431.702c7.147-17.388,16.1-42.541,22.498-63.886,4.25-14.18,6.882-27.66,8.149-33.997l.268.115c14.291,6.139,27.998,11.64,42.874,18.248,5.243,2.329,13.673,6.942,17.783,10.878,6.202,5.94,9.231,17.851,11.974,25.881,8.449,24.728,13.211,36.171,20.575,61.209,2.753,9.36,3.854,20.234.08,27.243-2.371,4.404-31.388,21.135-47.505,24.279H52.418Z"/><path class="d" d="M128.506,288.146c.411-3.647,1.424-7.195,2.432-10.724,7.263-14.563,20.357-49.846,28.897-78.339,4.927-16.436,7.34-30.935,8.28-35.5,3.704,0,18.651,19.474,21.295,26.338.178.463-6.637,8.544-10.145,11.568,1.497,1.11,7.754,8.472,7.879,9.303.092.611-30.203,51.525-46.976,76.794"/><path class="d" d="M130.938,276.841c-19.392-23.326-51.974-68.877-51.888-69.45.11-.731,5.283-6.855,7.078-8.465-3.36-3.013-9.363-10.15-9.201-10.571,2.477-6.431,17.607-24.773,21.077-24.773,1.153,5.456,4.848,20.015,10.897,35.79,8.987,23.435,21.659,49.742,28.005,63.446"/><path class="e" d="M172.875,170.312c9.069,3.835,18.172,7.588,27.22,11.474,7.921,3.402,15.903,6.732,23.062,11.603,2.821,1.92,5.265,4.09,7.1,6.992,2.026,3.206,3.476,6.73,4.75,10.29,2.832,7.912,5.339,15.946,8.134,23.875,5.508,15.629,11.03,31.225,15.725,47.123,2.274,7.701,4.199,16.694,1.407,24.522-.233.653-.529,1.258-.846,1.873-.048.092-.16.188-.188.285.1-.343.341-.39.017-.049-.502.527-1.028,1.019-1.587,1.485-.178.148-.359.293-.539.438-.095.077-.192.152-.288.227.02-.015.328-.251.108-.085-.468.353-.939.7-1.417,1.039-1.008.716-2.036,1.404-3.074,2.074-5.42,3.502-11.111,6.605-16.907,9.437-5.87,2.868-11.919,5.511-18.214,7.302-1.301.37-2.613.694-3.939.957-1.272.252-2.002,1.768-1.676,2.952.365,1.327,1.677,1.929,2.952,1.676,6.447-1.278,12.645-3.847,18.612-6.538,6.295-2.84,12.439-6.05,18.352-9.619,2.332-1.407,4.637-2.871,6.841-4.472,1.485-1.079,3.075-2.199,4.28-3.603,2.125-2.478,2.892-6.1,3.307-9.248.594-4.519.224-9.087-.549-13.562-.809-4.68-2.254-9.21-3.633-13.745-1.306-4.293-2.657-8.573-4.06-12.836-2.486-7.558-5.146-15.057-7.805-22.555-2.945-8.301-5.893-16.602-8.611-24.981-2.377-7.327-4.906-15.511-10.462-21.125-2.772-2.801-6.251-4.976-9.633-6.955-3.484-2.039-7.092-3.809-10.783-5.437-9.444-4.167-18.974-8.135-28.494-12.125-2.247-.942-4.494-1.885-6.738-2.834-1.193-.504-2.571-.358-3.284.861-.589,1.006-.34,2.776.861,3.284h0Z"/><path class="e" d="M53.054,331.175c-6.041-1.198-11.87-3.53-17.465-6.054-6.12-2.761-12.095-5.875-17.857-9.322-2.318-1.387-4.609-2.829-6.812-4.394-.424-.302-.842-.611-1.261-.921-.484-.359.128.108-.193-.147-.207-.164-.413-.329-.616-.497-.584-.484-1.124-.997-1.652-1.539-.524-.538.099.362-.131-.167-.26-.6-.599-1.157-.828-1.775-.653-1.763-1.052-3.633-1.22-5.504-.376-4.174.034-8.396.86-12.493.928-4.599,2.401-9.083,3.775-13.563,1.257-4.098,2.558-8.183,3.904-12.253,2.418-7.311,4.995-14.568,7.569-21.825,2.843-8.016,5.711-16.027,8.327-24.12,1.173-3.628,2.344-7.282,3.89-10.772,1.434-3.237,3.135-6.511,5.671-9.028,2.615-2.597,5.886-4.558,9.059-6.387,3.471-2.001,7.061-3.727,10.725-5.34,9.001-3.964,18.079-7.746,27.148-11.55,2.275-.954,4.549-1.911,6.821-2.87,1.194-.505,1.455-2.268.861-3.284-.723-1.237-2.085-1.368-3.284-.861-9.314,3.934-18.661,7.79-27.945,11.795-7.95,3.43-16.004,6.842-23.026,12-3.124,2.295-5.683,4.917-7.691,8.254-2.075,3.447-3.583,7.236-4.929,11.017-2.889,8.116-5.475,16.344-8.343,24.47-5.664,16.049-11.555,32.079-16.075,48.5-2.253,8.185-3.719,17.941-.35,26.032,1.714,4.115,5.65,6.488,9.262,8.84,5.514,3.591,11.32,6.759,17.23,9.646,6.192,3.025,12.591,5.844,19.227,7.748,1.344.385,2.701.723,4.073.995,1.27.252,2.591-.362,2.952-1.676.324-1.18-.399-2.699-1.676-2.952h0Z"/><path class="e" d="M224.865,193.004c-2.664,16.523-6.36,32.818-10.319,49.07-2.726,11.193-5.503,22.399-7.679,33.716-.692,3.597-1.441,7.279-1.511,10.953-.087,4.518-.122,9.038-.129,13.557-.016,11.254.119,22.507.12,33.761,0,3.089,4.8,3.094,4.8,0-.001-10.11-.102-20.22-.119-30.331-.008-4.42.01-8.839.069-13.259.051-3.855.246-6.986.879-10.593,3.682-20.962,9.917-41.385,14.155-62.229,1.578-7.761,3.101-15.549,4.362-23.369.206-1.278-.331-2.583-1.676-2.952-1.144-.314-2.745.389-2.952,1.676h0Z"/><path class="e" d="M103.782,189.889c5.834,2.805,12.604,3.955,18.963,4.699,11.479,1.342,23.562.762,34.716-2.411,2.157-.614,4.344-1.313,6.371-2.288,1.168-.562,1.478-2.229.861-3.284-.698-1.194-2.111-1.425-3.284-.861-.093.045-.188.086-.282.128-.198.089-.645.233.184-.075-.186.069-.368.151-.553.225-1.114.441-2.25.826-3.396,1.178-4.127,1.268-8.399,2.118-12.686,2.61-10.982,1.262-22.459.786-33.135-2.23-1.468-.415-2.925-.88-4.35-1.427-.212-.081-.422-.167-.634-.25-.641-.252.397.192.04.018-.129-.063-.264-.115-.393-.177-1.168-.561-2.592-.321-3.284.861-.614,1.05-.312,2.72.861,3.284h0Z"/><path class="e" d="M130.906,288.146c.316-2.636.988-5.227,1.695-7.781.252-.909.442-1.788.851-2.626.312-.641.619-1.285.921-1.931,1.408-3.011,2.725-6.064,4.013-9.129,3.235-7.694,6.231-15.489,9.115-23.32,3.297-8.952,6.438-17.963,9.417-27.025,3.102-9.436,6.097-18.919,8.499-28.56,1.944-7.8,3.401-15.682,5.013-23.552l-2.314,1.762c.132.005-.674-.178-.134.008.377.13-.487-.262-.231-.103.083.052.18.082.264.134.171.107.347.204.516.315.143.095.853.647.342.233,1.083.876,2.082,1.849,3.045,2.854,2.434,2.538,4.723,5.327,6.813,8.085,2.25,2.969,4.411,6.024,6.328,9.22.702,1.17,1.33,2.366,1.934,3.587.179.362-.073.195-.011-.042-.146.555.129-1.003.11-.926.193-.818.212-.408.005-.133-.149.199-.286.411-.43.613-.072.101-.149.2-.224.299.314-.418-.083.106-.151.191-2.66,3.33-5.506,6.667-8.724,9.473-1.293,1.127-.64,2.901.486,3.769-.702-.541-.032.012.119.156.235.223.461.455.686.688.578.599,1.137,1.216,1.69,1.839,1.198,1.35,2.374,2.727,3.482,4.153-.236-.303.313.42.382.516.15.209.285.428.435.637.277.388.037.172-.03-.169-.014-.07-.137-1.49.214-1.684-.173.096-.386.749-.482.924-2.049,3.747-4.264,7.408-6.439,11.081-8.34,14.081-16.842,28.07-25.499,41.958-4.753,7.625-9.549,15.226-14.517,22.714-1.712,2.581,2.443,4.988,4.145,2.423,9.532-14.369,18.545-29.089,27.497-43.824,6.417-10.563,13.027-21.081,18.958-31.929.264-.482.589-1.012.742-1.541.39-1.35-.469-2.475-1.23-3.486-2.258-3.004-4.736-6.292-7.73-8.601l.486,3.769c3.099-2.701,5.851-5.903,8.425-9.099.815-1.012,2.004-2.189,2.34-3.5.39-1.521-.891-3.395-1.607-4.692-1.854-3.36-4.069-6.531-6.35-9.612-2.488-3.36-5.095-6.659-7.952-9.715-1.933-2.067-4.621-5.276-7.702-5.383-.99-.034-2.11.765-2.314,1.762-1.376,6.722-2.604,13.464-4.185,20.144-2.317,9.793-5.251,19.411-8.352,28.98-5.601,17.285-11.694,34.459-18.64,51.254-1.383,3.344-2.813,6.67-4.344,9.949-.831,1.781-1.647,3.451-2.18,5.355-.878,3.138-1.606,6.281-1.995,9.519-.155,1.289,1.214,2.4,2.4,2.4,1.426,0,2.245-1.107,2.4-2.4h0Z"/><path class="e" d="M132.635,275.144c-10.176-12.251-19.744-25.014-29.216-37.812-7.135-9.64-14.304-19.289-21.054-29.204-.323-.474-.651-.946-.954-1.433-.07-.113-.143-.308-.24-.398-.209-.193.166.331.195.472.053.26.16,1.474-.169,1.642.048-.024.145-.26.177-.3.177-.22.325-.473.491-.703.299-.414.148-.208.552-.715.619-.776,1.256-1.538,1.902-2.291,1.114-1.298,2.24-2.622,3.505-3.778.924-.844.93-2.552,0-3.394-2.757-2.498-5.25-5.352-7.581-8.247-.507-.63-.4-.448-.882-1.16-.047-.069-.223-.43-.286-.451.235.076.216,1.475.219,1.485.047.193-.211.446.009-.007.533-1.095,1.126-2.151,1.771-3.185,3.578-5.734,7.891-11.046,12.644-15.879,1.069-1.087,2.172-2.148,3.365-3.099-.45.359.153-.109.316-.22.196-.133.397-.256.599-.379.318-.194.605-.228.053-.062.586-.176.025-.045-.047-.043l-2.314-1.762c2.795,13.161,7.084,26.09,11.986,38.599,5.688,14.512,12.07,28.747,18.615,42.888,2.831,6.115,5.71,12.208,8.543,18.322.545,1.176,2.241,1.471,3.284.861,1.207-.706,1.408-2.103.861-3.284-5.536-11.95-11.182-23.847-16.516-35.889-6.504-14.683-12.698-29.531-17.389-44.905-1.797-5.89-3.476-11.843-4.756-17.869-.211-.992-1.312-1.798-2.314-1.762-2.545.092-4.762,2.379-6.478,4.021-2.643,2.528-5.053,5.309-7.36,8.144-2.476,3.044-4.875,6.181-6.983,9.493-.736,1.157-1.448,2.34-2.024,3.586-.725,1.568-.76,2.685.246,4.083,2.608,3.623,5.718,7.117,9.025,10.113v-3.394c-2.47,2.255-4.66,4.991-6.647,7.672-.765,1.033-1.44,2.142-.916,3.454.141.353.329.654.535.972,2.143,3.318,4.5,6.509,6.795,9.721,9.202,12.876,18.604,25.616,28.214,38.19,5.494,7.189,11.048,14.339,16.83,21.299.829.998,2.537.857,3.394,0,.987-.987.831-2.394,0-3.394h0Z"/><path class="e" d="M224.756,290.407c.594.037,1.185.105,1.775.183l-.638-.086c2.03.273,4.043.655,6.068.957.663.099,1.247.111,1.849-.242.498-.291.973-.862,1.103-1.434.14-.614.11-1.304-.242-1.849-.315-.489-.832-1.013-1.434-1.103-2.817-.42-5.634-1.047-8.481-1.225-1.255-.079-2.456,1.16-2.4,2.4.061,1.368,1.055,2.316,2.4,2.4h0Z"/><path class="e" d="M36.958,194.28c2.639,16.367,6.284,32.514,10.207,48.611,2.735,11.224,5.518,22.459,7.719,33.802.717,3.693,1.354,6.815,1.418,10.43.079,4.449.117,8.898.122,13.348.014,11.197-.119,22.393-.12,33.589,0,3.089,4.8,3.094,4.8,0,.001-10.168.104-20.335.12-30.502.013-8.217.343-16.504-1.063-24.626-3.638-21.02-9.922-41.489-14.176-62.38-1.593-7.82-3.128-15.668-4.398-23.548-.206-1.281-1.8-1.993-2.952-1.676-1.362.374-1.883,1.668-1.676,2.952h0Z"/><path class="e" d="M41.696,285.607c-2.847.178-5.664.805-8.481,1.225-.554.083-1.165.643-1.434,1.103-.301.514-.429,1.273-.242,1.849.188.581.548,1.141,1.103,1.434.608.321,1.174.343,1.849.242,2.025-.302,4.038-.683,6.068-.957l-.638.086c.59-.078,1.181-.146,1.775-.183,1.251-.078,2.461-1.048,2.4-2.4-.055-1.233-1.058-2.484-2.4-2.4h0Z"/><path class="f" d="M133.29,216.161c-37.436.271-74.692.488-87.92.533-2.105.007-3.799,1.715-3.792,3.82.077,21.492,1.113,95.871,1.903,123.211.06,2.087,1.786,3.729,3.874,3.697,11.955-.184,48.981-.071,85.935.056,36.954-.126,73.98-.24,85.935-.056,2.088.032,3.813-1.61,3.874-3.697.79-27.339,1.826-101.719,1.903-123.211.008-2.105-1.687-3.813-3.792-3.82-13.228-.045-50.484-.263-87.92-.533Z"/><path class="e" d="M133.29,213.761c-26.193.189-52.387.365-78.58.493-1.943.01-3.885.019-5.828.027-1.87.008-4.005-.237-5.765.463-2.786,1.109-3.948,3.666-3.936,6.512.006,1.299.013,2.597.022,3.896.051,7.391.133,14.782.221,22.173.233,19.664.52,39.328.863,58.991.153,8.788.318,17.576.516,26.363.076,3.371.157,6.741.252,10.111.081,2.909,1.142,5.494,4.034,6.612,1.684.651,3.649.399,5.426.383,23.951-.216,47.909-.023,71.86.056,27.309.09,54.618-.158,81.926-.109,4.06.007,8.119.018,12.179.057,1.985.019,4.078.26,5.875-.775,2.506-1.443,3.106-3.923,3.181-6.608.209-7.56.364-15.122.511-22.683.383-19.709.682-39.42.943-59.131.114-8.664.22-17.329.306-25.994.032-3.272.062-6.545.084-9.817.009-1.276.025-2.552.021-3.828-.008-2.902-1.591-5.648-4.54-6.435-1.718-.459-3.733-.232-5.501-.24-1.971-.008-3.942-.018-5.914-.027-5.119-.025-10.238-.053-15.356-.082-13.517-.077-27.033-.163-40.55-.253-7.416-.05-14.833-.102-22.249-.155-3.089-.022-3.093,4.778,0,4.8,25.763.186,51.527.358,77.291.487,1.948.01,3.897.019,5.845.028,1.567.007,3.227-.146,4.784.019,1.614.171,1.391,1.678,1.385,2.941-.007,1.323-.015,2.645-.025,3.968-.053,7.299-.134,14.598-.221,21.896-.229,19.261-.51,38.522-.845,57.782-.149,8.584-.309,17.167-.499,25.75-.075,3.397-.155,6.794-.247,10.191-.037,1.367.284,3.252-1.532,3.399-1.389.112-2.852-.035-4.246-.046-23.59-.182-47.184-.013-70.774.065-26.876.089-53.752-.15-80.629-.111-4.139.006-8.279.016-12.418.05-1.288.011-2.924.294-4.173.011-1.528-.346-1.139-2.495-1.171-3.667-.201-7.491-.354-14.982-.498-22.474-.372-19.313-.666-38.627-.922-57.942-.112-8.445-.215-16.89-.3-25.335-.033-3.285-.063-6.571-.087-9.856-.01-1.332-.018-2.665-.024-3.997-.007-1.44.026-2.598,1.745-2.626,21.926-.351,43.87-.233,65.798-.38,7.255-.049,14.509-.099,21.764-.152,3.087-.022,3.094-4.822,0-4.8Z"/><path class="e" d="M59.636,336.368c18.147-.113,36.295-.016,54.442.04,22.078.068,44.154-.035,66.231-.068,8.878-.013,17.757-.027,26.635.028,3.089.019,3.093-4.781,0-4.8-18.147-.113-36.295-.016-54.442.04-22.078.068-44.154-.035-66.231-.068-8.878-.013-17.757-.027-26.635.028-3.088.019-3.094,4.819,0,4.8h0Z"/><path class="e" d="M133.29,268.84c-2.734.026-5.469.062-8.203.065-1.301.001-2.395,1.099-2.4,2.4-.011,2.868-.015,5.736-.012,8.605.002,1.685.005,3.37.02,5.055.005.605-.002,1.213.025,1.818.071,1.604,1.055,2.629,2.692,2.629,4.915,0,9.83-.034,14.745-.011.832.004,1.758.134,2.508-.304,1.156-.676,1.192-1.891,1.208-3.065.022-1.577.026-3.155.03-4.733.008-3.331.004-6.662-.009-9.994-.005-1.298-1.096-2.399-2.4-2.4-2.734-.003-5.469-.039-8.203-.065-1.297-.012-2.4,1.112-2.4,2.4,0,1.312,1.099,2.388,2.4,2.4,2.734.026,5.469.062,8.203.065l-2.4-2.4c.02,5.237.091,10.483-.039,15.718l.328-1.211h0c.691-.395,1.382-.791,2.072-1.188-.901-.083-1.832-.026-2.735-.025-1.809.001-3.619.018-5.428.018-1.767,0-3.534-.016-5.3-.018-.946,0-1.92-.062-2.863.025l2.072,1.189h0c.109.403.218.807.328,1.21-.13-5.236-.059-10.481-.039-15.718l-2.4,2.4c2.734-.003,5.469-.039,8.203-.065,1.297-.012,2.4-1.094,2.4-2.4,0-1.292-1.098-2.412-2.4-2.4Z"/></g></svg>