<?xml version="1.0" encoding="UTF-8"?><svg id="b" xmlns="http://www.w3.org/2000/svg" width="283.01" height="376.791" viewBox="0 0 283.01 376.791"><defs><style>.d{fill:#bdbdbd;}.e{fill:#211715;}.f{fill:#fff;}.g{fill:#66bd6f;}.h{fill:#645d5c;}</style></defs><g id="c"><path class="f" d="M196.476,93.973c1.735-1.566,4.308-2.323,6.713-1.964s4.595,1.81,5.696,3.787c.778,1.386,1.029,2.965,1.173,4.506.527,6.072-.67,12.259-3.422,17.792-1.34,2.696-3.087,5.276-5.516,7.24-1.866,1.488-4.15,2.592-6.577,2.965l-1.115.171c-.55,2.023-1.157,3.725-1.454,4.628-1.988,5.397-13.465,24.583-27.681,30.451.097,3.734.497,7.432,1.128,11.118.665,3.884.438,7.352,5.826,9.322.357.13,3.35,1.326,4.156,1.685,0,0,3.36,26.853-34.862,26.853s-34.942-27.45-34.942-27.45c.662-.28,2.905-1.209,3.263-1.336,5.404-1.927,5.205-5.397,5.9-9.275.656-3.657,1.084-7.327,1.213-11.033-6.265-2.802-12.011-7.44-17.134-13.571-5.739-6.869-8.978-14.51-10.879-21.237-1.338-.202-2.143-.326-2.143-.326-2.428-.373-4.712-1.476-6.577-2.965-2.429-1.964-4.176-4.544-5.516-7.24-2.752-5.533-3.949-11.72-3.422-17.792.144-1.54.395-3.119,1.173-4.506,1.101-1.977,3.291-3.427,5.696-3.787s4.978.398,6.713,1.964c0,0-4.677-52.113,52.212-52.113,63.111,0,60.382,52.113,60.382,52.113Z"/><path class="e" d="M113.55,164.023c-.135,2.885-.428,5.756-.898,8.605-.297,1.799-.478,3.681-.985,5.436-.051.176-.107.35-.165.524-.216.647.212-.377-.091.233-.164.329-.345.654-.565.949.263-.352-.207.205-.223.222-.144.146-.293.287-.452.416-.133.108.006.007-.256.173-.245.155-.494.301-.751.436-1.331.695-2.818,1.162-4.203,1.745-1.194.503-2.052,1.586-1.676,2.952.309,1.125,1.75,2.183,2.952,1.676,1.764-.743,3.653-1.345,5.35-2.229,2.148-1.119,3.694-2.928,4.509-5.195.668-1.859.829-3.923,1.154-5.862.559-3.336.946-6.701,1.103-10.081.061-1.296-1.146-2.4-2.4-2.4-1.35,0-2.339,1.1-2.4,2.4h0Z"/><path class="e" d="M161.907,164.108c.13,3.483.507,6.948,1.063,10.388.327,2.023.465,4.168,1.232,6.085.97,2.424,2.79,4.172,5.173,5.221.845.372,1.715.687,2.572,1.03.462.185.923.371,1.383.558.248.101.495.203.742.305.218.09-.386-.169.117.051,1.186.52,2.577.348,3.284-.861.596-1.018.332-2.76-.861-3.284-1.538-.675-3.103-1.294-4.669-1.904-.447-.174-.872-.365-1.29-.606-.457-.264-.677-.411-.94-.669-.146-.143-.291-.286-.426-.439-.355-.402.068.149-.182-.258-.119-.193-.228-.387-.331-.588-.315-.613.12.403-.104-.248-.623-1.81-.768-3.788-1.072-5.669-.488-3.016-.778-6.059-.891-9.112-.115-3.079-4.915-3.094-4.8,0h0Z"/><path class="h" d="M184.682,81.417c-5.874-6.696-13.007-12.291-20.953-16.318l-11.535-2.736c-7.15,3.274-20.088,10.342-21.214,9.857-.776-.334-2.185-3.585-3.191-6.689-.604-1.863-1.063-3.672-1.153-4.768-14.925,12.4-24.026,20.444-40.727,37.021-.479-3.994-4.83-6.36-8.74-5.775-.666.1-1.316.283-1.929.541-4.338-17.947-3.26-33.136.373-43.803,3.294-9.674,10.733-20.69,20.125-25.566-3.181-1.507-6.814-3.244-6.814-3.244C103.04,5.729,121.61,2.474,137.729,2.967c17.21.526,30.655,7.301,38.722,18.352l9.277,7.683c7.602,3.938,14.735,12.049,18.439,22.405,5.269,14.732,4.656,30.259.486,40.963-.473-.164-.964-.286-1.463-.36-3.458-.517-7.262,1.275-8.403,4.467-2.691-5.432-6.105-10.501-10.104-15.059Z"/><path class="e" d="M184.516,31.074c15.746,8.273,21.641,27.959,20.984,44.647-.187,4.743-.957,9.432-2.423,13.951-.956,2.945,3.678,4.207,4.629,1.276,2.958-9.117,3.248-18.992,1.767-28.41-1.543-9.813-5.208-19.296-11.738-26.874-3.027-3.512-6.683-6.574-10.796-8.735-2.732-1.436-5.161,2.706-2.423,4.145h0Z"/><path class="e" d="M97.975,19.595c-10.066,3.772-17.538,12.855-22.111,22.308-4.477,9.254-6.05,19.601-5.832,29.817.154,7.187,1.199,14.353,2.863,21.34.715,3.004,5.345,1.732,4.629-1.276-4.635-19.466-4.329-41.799,9.107-57.871,3.404-4.072,7.585-7.804,12.62-9.691,1.213-.455,2.042-1.622,1.676-2.952-.32-1.165-1.732-2.133-2.952-1.676h0Z"/><path class="e" d="M178.523,19.681c-7.64-10.376-19.246-16.652-31.873-18.68-12.919-2.074-27.112-.979-39.341,3.789-7.533,2.937-14.356,7.303-20.083,13.023-2.189,2.186,1.205,5.581,3.394,3.394,9.06-9.048,21.046-14.179,33.678-15.708,12.034-1.457,24.988-.782,35.955,4.812,5.52,2.815,10.441,6.788,14.126,11.792.767,1.042,2.081,1.564,3.284.861,1.028-.601,1.634-2.234.861-3.284h0Z"/><path class="e" d="M150.982,60.291c-5.521,2.538-10.865,5.442-16.359,8.036-.568.268-1.138.533-1.712.788-.201.089-.402.178-.604.264.52-.221-.22.086-.315.122-.318.122-.645.216-.965.332-.082.03-.23.023-.302.071.604-.408,1.089.458,1.725.458-.16-.175-.165-.174-.013.003-.075-.111-.146-.224-.212-.34-.174-.332-.362-.654-.526-.992-.387-.796-.709-1.62-1.014-2.451-.667-1.818-1.46-3.997-1.65-5.819-.222-2.133-2.431-3.082-4.097-1.697-10.587,8.798-20.938,17.836-30.868,27.373-3.47,3.333-6.903,6.705-10.318,10.095-2.195,2.179,1.199,5.574,3.394,3.394,10.304-10.23,20.832-20.206,31.874-29.639,3.083-2.634,6.193-5.237,9.312-7.829l-4.097-1.697c.378,3.621,1.688,7.252,3.241,10.528,1,2.111,2.421,3.852,4.944,3.137,1.858-.526,3.646-1.483,5.381-2.316,2.476-1.188,4.926-2.429,7.38-3.66,2.727-1.368,5.452-2.742,8.224-4.016,1.178-.541,1.47-2.243.861-3.284-.707-1.209-2.102-1.404-3.284-.861h0Z"/><path class="e" d="M162.518,67.171c13.763,7.025,24.796,18.595,31.207,32.65.538,1.179,2.246,1.468,3.284.861,1.212-.709,1.401-2.1.861-3.284-6.713-14.718-18.524-27.02-32.929-34.373-2.746-1.402-5.178,2.738-2.423,4.145h0Z"/><path class="e" d="M198.173,95.67c2.357-2.019,6.314-1.749,8.257.731,1.207,1.542,1.274,3.816,1.333,5.68.063,2.009-.04,4.039-.381,6.021-1.276,7.419-5.21,16.469-13.478,17.881-1.279.218-1.995,1.792-1.676,2.952.372,1.353,1.67,1.895,2.952,1.676,8.411-1.436,13.415-9.321,15.782-16.888,1.257-4.018,1.806-8.33,1.56-12.534-.243-4.155-1.444-8.077-5.264-10.262-4.031-2.306-9.009-1.626-12.48,1.347-.985.844-.867,2.527,0,3.394.976.976,2.407.846,3.394,0h0Z"/><path class="e" d="M192.055,122.052c-.081,2.481-.664,4.897-1.376,7.266-.258.858-.541,1.708-.826,2.558-.077.231-.152.464-.236.692-.036.096-.079.191-.113.288-.171.5.14-.31.03-.069-1.081,2.374-2.359,4.645-3.746,6.854-4.045,6.442-8.993,12.589-15.018,17.284-3.284,2.559-6.953,4.617-11.011,5.548-3.01.691-1.736,5.32,1.276,4.629,8.359-1.919,15.359-7.942,20.874-14.244,4.509-5.151,8.738-10.977,11.585-17.236,1.903-4.184,3.21-8.979,3.36-13.57.101-3.09-4.7-3.086-4.8,0h0Z"/><path class="e" d="M85.579,92.276c-2.973-2.547-7.166-3.525-10.886-2.081-4.108,1.594-6.177,5.011-6.701,9.264-.992,8.061,1.177,17.167,6.008,23.74,2.734,3.719,6.546,6.622,11.178,7.413,1.276.218,2.585-.339,2.952-1.676.317-1.153-.392-2.733-1.676-2.952-8.268-1.412-12.202-10.461-13.478-17.881-.341-1.984-.443-4.011-.381-6.021.058-1.872.133-4.129,1.333-5.68,1.929-2.493,5.909-2.742,8.257-.731.984.843,2.428.966,3.394,0,.863-.863.989-2.547,0-3.394h0Z"/><path class="e" d="M83.839,121.213c1.446,8.35,4.136,16.563,8.587,23.813,4.868,7.929,11.906,15.101,20.194,19.439,4.454,2.331,9.213,3.758,14.21,4.274,1.291.134,2.4-1.199,2.4-2.4,0-1.409-1.105-2.266-2.4-2.4-16.916-1.749-30.075-16.921-35.367-32.165-1.337-3.853-2.3-7.821-2.996-11.837-.221-1.278-1.79-1.996-2.952-1.676-1.351.371-1.898,1.671-1.676,2.952h0Z"/><path class="e" d="M130.463,142.876c3.313,1.749,6.882,2.476,10.627,2.452,3.768-.024,7.618-.748,10.641-3.103,1.023-.797.837-2.557,0-3.394-1.01-1.01-2.368-.799-3.394,0,.702-.547.067-.066-.113.049-.217.139-.441.268-.67.388-.145.076-.915.412-.345.184-.305.122-.612.235-.924.336-1.925.619-3.503.753-5.543.741-1.993-.012-3.417-.152-5.29-.712-.339-.101-.669-.222-1.002-.337-.109-.037-.213-.093-.323-.126.582.175.133.06-.012-.008-.415-.195-.823-.399-1.228-.613-1.146-.605-2.61-.291-3.284.861-.634,1.084-.289,2.676.861,3.284h0Z"/><path class="e" d="M140.058,117.596c.472,1.801.926,3.631,1.197,5.475l-.086-.638c.032.253.046.502.021.756l.086-.638c-.018.118-.044.228-.083.34l.242-.573c-.035.079-.072.147-.12.219l.375-.486c-.056.068-.11.121-.179.176l.486-.375c-.138.089-.284.161-.434.229l.573-.242c-.239.1-.475.173-.731.213l.638-.086c-.231.027-.456.026-.686-.001l.638.086c-.259-.036-.513-.099-.771-.134-.67-.09-1.239-.115-1.849.242-.498.291-.973.862-1.103,1.434-.14.614-.11,1.304.242,1.849.312.484.835,1.022,1.434,1.103.553.074,1.089.216,1.651.241.843.037,1.632-.217,2.387-.561.923-.42,1.641-1.228,1.887-2.223.208-.84.116-1.599-.026-2.44-.298-1.764-.706-3.512-1.159-5.242-.318-1.214-1.729-2.072-2.952-1.676-1.25.404-2.018,1.651-1.676,2.952h0Z"/><path class="e" d="M110.716,102.199c-.914,2.971-.318,9.806,5.311,10.388,7.44-.045,7.836-8.308,5.331-12.194-2.051-3.181-8.08-4.504-10.642,1.806Z"/><path class="e" d="M170.294,102.2c.914,2.971.319,9.806-5.31,10.388-7.44-.045-7.836-8.309-5.332-12.194,2.05-3.181,8.08-4.504,10.642,1.806Z"/><path class="f" d="M143.491,181.79c-2.178-.005-4.4-.009-6.409-.013.072-.24.1-.484.028-.722-.153-.506-.689-.775-1.17-.996-8.107-3.716-16.576-9.537-23.206-16.31-3.629,3.31-6.446,7.528-8.504,11.607,2.126,7.811,5.521,22.065,10.419,36.28,8.791,25.512,20.864,53.992,27.366,68.181l.733,1.158c7.798-18.576,18.149-47.385,25.326-71.129,4.513-14.931,7.258-28.895,8.369-34.947-1.988-3.857-4.648-7.786-8.03-10.92-6.683,6.72-15.198,12.474-23.335,16.125-.483.217-1.021.481-1.178.986-.072.23-.05.467.02.701-.142,0-.285,0-.428,0Z"/><path class="d" d="M151.073,357.123H56.217c-17.347-3.385-48.578-21.392-51.13-26.132-4.062-7.544-2.877-19.248.086-29.322,7.926-26.949,13.052-39.264,22.145-65.88,2.953-8.642,6.213-21.462,12.888-27.856,4.423-4.237,13.474-9.253,19.14-11.708,16.623-7.202,30.262-12.827,45.312-19.283,2.139,8.047,5.406,21.387,9.991,34.694,8.791,25.512,20.864,53.992,27.366,68.181l.666,1.32c7.805-18.571,18.195-47.478,25.393-71.29,4.235-14.009,6.913-27.168,8.143-33.73l1.368.468c15.382,6.607,30.135,12.529,46.146,19.641,5.643,2.507,14.717,7.471,19.14,11.708,6.675,6.394,9.935,19.214,12.888,27.856,9.094,26.615,14.219,38.931,22.145,65.88,2.963,10.074,4.148,21.778.086,29.322-2.552,4.74-33.783,22.748-51.13,26.132h-75.787Z"/><path class="e" d="M176.373,178.656c9.965,4.278,19.992,8.408,29.977,12.641,9.033,3.829,18.263,7.447,26.7,12.505,3.336,2,6.768,4.16,9.349,7.116,2.563,2.935,4.334,6.628,5.787,10.213,1.592,3.928,2.867,7.973,4.171,12.003,1.49,4.604,3.102,9.168,4.701,13.735,6.019,17.189,12.21,34.295,17.438,51.749,2.636,8.801,5.341,18.671,2.742,27.818-.249.878-.539,1.75-.931,2.575-.14.295-.292.581-.446.869-.055.103-.388.542-.092.157.302-.392-.048.046-.117.119-.125.13-.246.264-.374.392-.302.303-.62.59-.944.87-.341.296-.693.579-1.045.861-.338.27-.015.015.046-.033-.102.078-.204.157-.307.234-.27.203-.541.404-.814.603-1.057.769-2.138,1.504-3.231,2.221-5.874,3.855-12.069,7.247-18.369,10.349-6.468,3.184-13.137,6.121-20.081,8.105-1.423.407-2.86.763-4.312,1.051-1.272.252-2.002,1.768-1.676,2.952.365,1.327,1.677,1.929,2.952,1.676,7.021-1.392,13.774-4.203,20.266-7.146,6.874-3.116,13.585-6.637,20.031-10.564,2.505-1.526,4.983-3.114,7.338-4.865,1.642-1.221,3.379-2.485,4.594-4.161,2.226-3.07,2.894-7.529,3.172-11.205.371-4.904-.232-9.891-1.23-14.691-1.092-5.255-2.802-10.388-4.385-15.51-1.387-4.485-2.823-8.954-4.309-13.406-2.805-8.405-5.796-16.746-8.753-25.098-3.188-9.004-6.18-18.065-9.259-27.104-2.766-8.121-6.084-16.313-13.063-21.697-7.481-5.771-16.184-9.544-24.793-13.27-10.207-4.417-20.49-8.655-30.735-12.983-2.528-1.068-5.054-2.142-7.575-3.225-1.19-.511-2.573-.354-3.284.861-.591,1.011-.337,2.77.861,3.284h0Z"/><path class="e" d="M233.861,203.636c-2.813,16.959-7.131,33.645-11.239,50.32-2.618,10.627-5.299,21.273-7.307,32.037-.662,3.547-1.168,7.058-1.241,10.667-.088,4.357-.137,8.715-.156,13.073-.048,10.911.033,21.822-.009,32.732-.012,3.089,4.788,3.093,4.8,0,.038-9.823-.016-19.647,0-29.47.007-4.224.035-8.447.1-12.67.032-2.059.011-4.132.133-6.188.099-1.66.273-2.656.538-4.253,1.719-10.352,4.328-20.576,6.816-30.763,2.466-10.099,5.112-20.156,7.356-30.307,1.752-7.927,3.509-15.891,4.837-23.903.212-1.277-.335-2.584-1.676-2.952-1.149-.316-2.739.39-2.952,1.676h0Z"/><path class="e" d="M104.281,174.512c-9.731,4.178-19.497,8.271-29.247,12.405-9.143,3.877-18.551,7.422-27.104,12.521-3.64,2.17-7.439,4.57-10.321,7.719-2.936,3.208-4.984,7.107-6.674,11.081-1.752,4.121-3.15,8.368-4.523,12.626-1.504,4.662-3.12,9.286-4.736,13.91-6.209,17.763-12.616,35.431-17.994,53.472-2.814,9.44-5.292,20.078-2.37,29.812.758,2.525,1.784,4.739,3.749,6.5,1.853,1.661,3.922,3.102,5.99,4.48,6.004,4.003,12.371,7.494,18.839,10.684,6.795,3.352,13.82,6.471,21.11,8.586,1.511.438,3.036.822,4.579,1.128,1.27.252,2.591-.362,2.952-1.676.324-1.18-.399-2.699-1.676-2.952-6.725-1.333-13.206-3.967-19.422-6.8-6.767-3.083-13.377-6.557-19.729-10.426-2.419-1.474-4.81-3.006-7.093-4.684-.241-.177-.479-.357-.718-.537-.322-.243.253.211-.247-.195-.384-.312-.767-.623-1.136-.952-.29-.258-.575-.522-.844-.801-.107-.111-.207-.232-.316-.341-.426-.428.131.313.004.019-.635-1.464-1.307-2.783-1.703-4.361-.512-2.039-.723-4.12-.769-6.219-.105-4.843.642-9.661,1.823-14.347,2.393-9.494,5.609-18.858,8.739-28.132,2.786-8.254,5.736-16.45,8.638-24.663,3.107-8.791,5.956-17.668,9.025-26.469,1.395-4.001,2.958-7.973,5.162-11.607,1.953-3.219,4.505-5.68,7.582-7.822,7.818-5.444,16.586-9.009,25.3-12.728,9.515-4.061,19.057-8.056,28.577-12.106,2.327-.99,4.652-1.983,6.975-2.981,1.191-.512,1.458-2.263.861-3.284-.72-1.232-2.088-1.375-3.284-.861h0Z"/><path class="e" d="M44.588,204.912c2.8,16.881,7.091,33.492,11.182,50.09,2.61,10.589,5.276,21.196,7.298,31.917.681,3.611,1.069,6.424,1.142,10.113.085,4.29.131,8.581.149,12.871.046,10.854-.033,21.707.009,32.561.012,3.088,4.812,3.094,4.8,0-.038-9.881.017-19.762,0-29.643-.008-4.286-.037-8.572-.105-12.858-.059-3.69-.175-7.256-.763-10.903-1.669-10.354-4.296-20.579-6.779-30.76s-5.159-20.335-7.426-30.576c-1.768-7.989-3.539-16.015-4.879-24.09-.212-1.28-1.796-1.994-2.952-1.676-1.358.373-1.889,1.669-1.676,2.952h0Z"/><path class="e" d="M50.459,305.334c-2.882.286-5.648,1.225-8.454,1.889-1.223.289-2.065,1.75-1.676,2.952.412,1.274,1.642,1.986,2.952,1.676,2.464-.583,4.901-1.412,7.416-1.758l-.638.086c.133-.017.266-.033.4-.046.652-.065,1.219-.224,1.697-.703.416-.416.73-1.099.703-1.697-.053-1.194-1.062-2.533-2.4-2.4h0Z"/><path class="e" d="M233.273,310.567c.639.04,1.276.113,1.911.197l-.638-.086c2.184.294,4.351.705,6.531,1.03.663.099,1.247.111,1.849-.242.498-.291.973-.862,1.103-1.434.14-.614.11-1.304-.242-1.849-.315-.489-.832-1.013-1.434-1.103-3.016-.45-6.032-1.121-9.08-1.312-1.255-.079-2.456,1.16-2.4,2.4.061,1.368,1.055,2.316,2.4,2.4h0Z"/><path class="g" d="M145.945,184.874c-.962-1.235-1.62-2.131-1.781-2.469-.094-.197-.189-.405-.245-.615-2.316-.005-4.701-.01-6.836-.014-.061.203-.154.402-.246.591-.322.661-2.573,3.455-5.296,6.743.399,2.002.898,4.069,1.354,6.059.105.46.215.92.329,1.38.25,1.005.502,2.023.489,3.058-.009.767-3.297,26.88-5.81,46.753,5.723,13.926,11.267,26.429,14.87,34.289l.062.134c3.95-9.433,8.551-21.47,13.059-34.13-2.804-19.445-6.671-45.491-6.649-46.644.035-1.858.626-3.655,1.212-5.419.256-.771.575-2.146.81-3.113-2.021-2.469-3.971-4.871-5.321-6.605Z"/><path class="e" d="M133.868,201.893c5.126.018,10.251-.072,15.377-.054,1.256.005,2.458-1.107,2.4-2.4-.058-1.304-1.054-2.395-2.4-2.4-5.126-.018-10.251.072-15.377.054-1.256-.005-2.458,1.107-2.4,2.4.058,1.304,1.054,2.395,2.4,2.4h0Z"/><path class="e" d="M144.254,179.392c-2.543-.005-5.086-.011-7.629-.016-1.255-.003-2.458,1.106-2.4,2.4.058,1.303,1.054,2.397,2.4,2.4,2.543.005,5.086.011,7.629.016,1.255.003,2.458-1.106,2.4-2.4-.058-1.303-1.054-2.397-2.4-2.4h0Z"/><path class="e" d="M158.273,246.475c-1.275-8.847-2.571-17.692-3.856-26.538-.545-3.75-1.088-7.501-1.622-11.253-.207-1.455-.413-2.91-.615-4.366-.078-.564-.155-1.128-.232-1.692.073.535.001.011-.028-.21-.032-.244-.064-.488-.095-.732-.068-.534-.166-1.079-.181-1.619-.068-2.542,1.289-5.179,1.957-7.595.825-2.982-3.805-4.254-4.629-1.276-.884,3.195-2.435,6.442-2.031,9.826.282,2.358.625,4.709.957,7.061,1.146,8.12,2.34,16.233,3.521,24.348.744,5.107,1.487,10.214,2.223,15.322.185,1.284,1.815,1.989,2.952,1.676,1.379-.379,1.862-1.664,1.676-2.952h0Z"/><path class="e" d="M129.273,189.752c.497,2.565,1.074,5.114,1.69,7.652.233.961.396,1.838.293,2.809-.215,2.016-.475,4.028-.722,6.04-.981,7.997-1.989,15.99-2.995,23.984-.659,5.231-1.319,10.461-1.98,15.691-.163,1.288,1.22,2.4,2.4,2.4,1.432,0,2.237-1.108,2.4-2.4,1.914-15.139,3.973-30.27,5.666-45.435.125-1.115.03-2.16-.185-3.281-.562-2.926-1.37-5.807-1.938-8.736-.247-1.273-1.772-2.001-2.952-1.676-1.331.366-1.924,1.675-1.676,2.952h0Z"/><path class="f" d="M122.367,200.151c-7.443-7.456-12.301-16.47-17.786-25.477,2.023-3.864,4.726-7.799,8.153-10.925,6.629,6.773,15.098,12.595,23.206,16.31.481.22,1.017.489,1.17.996.133.439-.073.901-.274,1.313-.702,1.44-10.573,13.024-14.469,17.782Z"/><path class="f" d="M158.491,200.303c7.502-7.396,12.432-16.372,17.988-25.335-1.992-3.88-4.663-7.836-8.066-10.989-6.683,6.72-15.198,12.474-23.335,16.125-.483.217-1.021.481-1.178.986-.136.438.066.902.264,1.315.691,1.446,10.469,13.107,14.327,17.897Z"/><path class="e" d="M124.064,198.454c-7.213-7.282-12.129-16.304-17.41-24.991v2.423c2.052-3.881,4.545-7.448,7.778-10.439h-3.394c3.629,3.685,7.641,6.988,11.895,9.928,2.02,1.396,4.102,2.703,6.239,3.912,1.098.621,2.212,1.216,3.34,1.781.491.246.984.486,1.48.721.294.139.589.276.884.413.099.043.195.093.288.15.232.133.19.105-.124-.085l-.328-1.211c.033.267-.27.619-.481.909-.089.122-.18.242-.27.363-.041.056-.335.441-.129.172.208-.271-.185.237-.23.294-.11.14-.22.28-.331.419-1.333,1.681-2.7,3.334-4.068,4.986-2.837,3.424-5.713,6.816-8.531,10.255-.821,1.002-.98,2.414,0,3.394.847.847,2.568,1.007,3.394,0,4.058-4.95,8.245-9.795,12.243-14.794,1.504-1.881,4.24-4.573,2.876-7.21-1.021-1.974-3.879-2.704-5.734-3.687-2.149-1.138-4.242-2.38-6.278-3.708-4.605-3.005-8.88-6.478-12.739-10.397-.935-.95-2.447-.877-3.394,0-2.89,2.674-5.318,5.849-7.318,9.235-.497.842-1.189,1.793-1.452,2.748-.352,1.277.548,2.35,1.163,3.371,1.026,1.703,2.042,3.413,3.068,5.116,4.13,6.855,8.514,13.614,14.171,19.325,2.177,2.198,5.571-1.196,3.394-3.394Z"/><path class="e" d="M160.188,202c5.702-5.665,10.137-12.394,14.321-19.215,1.04-1.695,2.069-3.396,3.108-5.091.626-1.02,1.528-2.083,1.176-3.364-.246-.896-.872-1.777-1.33-2.576-1.992-3.471-4.433-6.727-7.353-9.472-.944-.888-2.453-.941-3.394,0-3.478,3.475-7.282,6.59-11.362,9.331-1.976,1.327-4.008,2.57-6.093,3.719-1.043.575-2.099,1.127-3.167,1.652-.965.475-2.034.847-2.933,1.436-3.433,2.25-.856,5.645.891,7.897,1.95,2.514,3.973,4.973,5.989,7.433,2.252,2.748,4.523,5.482,6.753,8.248.814,1.01,2.546.848,3.394,0,.998-.998.816-2.382,0-3.394-2.791-3.461-5.64-6.876-8.449-10.323-1.332-1.634-2.655-3.274-3.959-4.93-.114-.144-.3-.386-.085-.106-.118-.153-.236-.307-.353-.461-.195-.258-.39-.516-.578-.78-.218-.305-.5-.641-.464-.915l-.328,1.211c-.111.225-.4.199.024.012.284-.126.566-.26.848-.39.498-.229.993-.463,1.485-.704,1.132-.552,2.25-1.134,3.353-1.743,2.212-1.22,4.366-2.545,6.456-3.965,4.276-2.904,8.313-6.182,11.97-9.836h-3.394c3.208,3.016,5.67,6.608,7.691,10.503v-2.423c-5.351,8.646-10.34,17.623-17.613,24.849-2.194,2.18,1.199,5.575,3.394,3.394Z"/><path class="d" d="M142.772,280.651c-6.502-14.189-19.332-43.503-28.123-69.015-5.49-15.933-9.091-31.916-11.127-38.822-3.88.308-20.123,21.595-22.783,28.421-.177.453,7.858,7.758,11.408,10.966-1.819,1.565-8.649,9.501-8.771,10.295-.095.613,42.257,52.919,54.379,68.464"/><path class="d" d="M134.505,304.641c.439-3.76,1.498-7.415,2.553-11.051,7.609-15.107,21.883-53.527,31.016-83.744,5.153-17.048,8.001-32.835,8.738-37.026,3.973.534,19.908,21.781,22.501,28.595.176.462-8.185,7.932-11.666,11.027,1.515,1.171,8.741,9.682,8.861,10.503.09.614-31.788,49.768-48.721,75.059"/><path class="e" d="M144.844,279.439c-5.644-12.322-11.009-24.775-16.105-37.333-6.42-15.818-12.455-31.803-17.081-48.248-2.026-7.203-3.716-14.503-5.822-21.682-.27-.92-1.273-1.877-2.314-1.762-2.836.314-5.086,2.817-6.957,4.764-2.996,3.116-5.703,6.51-8.321,9.945-2.558,3.356-5.024,6.804-7.215,10.413-.777,1.28-1.528,2.584-2.139,3.952-.465,1.042-.793,1.989-.197,3.061.302.543.796,1.039,1.225,1.491,3.303,3.48,6.977,6.642,10.533,9.857v-3.394c-2.791,2.448-5.217,5.534-7.504,8.444-.902,1.147-2.329,2.595-1.879,4.208.132.475.407.849.69,1.238,2.737,3.768,5.721,7.374,8.619,11.018,10.477,13.179,21.039,26.29,31.551,39.44,4.731,5.918,9.471,11.83,14.131,17.804.798,1.023,2.557.837,3.394,0,1.01-1.01.8-2.369,0-3.394-9.135-11.712-18.49-23.255-27.777-34.847-5.118-6.387-10.237-12.774-15.339-19.174-1.979-2.482-3.955-4.966-5.923-7.458-.741-.938-1.48-1.877-2.217-2.819-.304-.389-.607-.778-.91-1.168-.075-.096-.149-.193-.224-.288-.282-.362.365.475.094.122-.128-.167-.257-.333-.384-.501-.37-.484-.722-.98-1.091-1.464-.027-.035-.183-.332-.218-.336-.046-.005-2.224-8.264.228.54.164.603.104,1.162-.182,1.676.028-.053.057-.105.088-.157.173-.2.309-.465.465-.68.108-.149.22-.295.332-.442-.322.422.16-.199.225-.281.34-.427.686-.849,1.035-1.269.722-.869,1.456-1.727,2.2-2.577,1.269-1.45,2.537-2.969,3.989-4.243.941-.825.916-2.566,0-3.394-3.078-2.783-6.165-5.564-9.138-8.46-.513-.5-1.026-1.001-1.515-1.525-.159-.17-.308-.378-.479-.534-.303-.277.278.43.176.224-.319-.643.482,1.38.087,1.84.327-.381.497-1.07.734-1.521.352-.671.727-1.33,1.113-1.981,3.932-6.639,8.648-12.858,13.815-18.554,1.176-1.297,2.388-2.575,3.711-3.724.158-.138.988-.786.418-.365.227-.168.453-.336.693-.485.181-.113.383-.198.561-.313.245-.158-.62.229-.255.111.231-.075.653-.102-.242-.003l-2.314-1.762c1.815,6.189,3.288,12.478,4.993,18.698,2.345,8.552,4.982,17.003,7.972,25.352,5.504,15.369,11.687,30.495,18.15,45.483,2.726,6.321,5.511,12.618,8.377,18.877.54,1.178,2.244,1.469,3.284.861,1.21-.708,1.403-2.101.861-3.284h0Z"/><path class="e" d="M136.905,304.641c.351-2.836,1.1-5.621,1.878-8.365.456-1.61,1.098-2.973,1.811-4.491,1.478-3.144,2.856-6.334,4.205-9.536,3.42-8.118,6.59-16.34,9.648-24.6,3.481-9.403,6.803-18.866,9.965-28.381,3.314-9.972,6.531-19.993,9.156-30.171,2.184-8.468,4.043-17.025,5.559-25.638l-2.952,1.676c.12.02.675.194.211.027s.177.111.301.186c.192.116.371.249.556.375.326.222-.087-.072-.126-.102.172.136.341.275.509.417,1.11.943,2.129,1.996,3.118,3.064,2.646,2.859,5.088,5.925,7.375,8.999,2.359,3.171,4.634,6.422,6.671,9.811.732,1.218,1.426,2.457,2.037,3.741.063.133.11.317.196.437-.392-.548-.067-.304-.073-.165.005-.111.552-2.19.198-1.509.323-.621.333-.373.16-.216-.466.425-.878.935-1.33,1.378-3.231,3.17-6.645,6.161-10.026,9.168-.894.795-.973,2.616,0,3.394,2.379,1.904,4.342,4.608,6.26,6.951.239.293.477.586.713.882.085.106.676.865.385.485.329.431.612,1.008.987,1.393.036.037.045.116.083.151-.345-.317-.211-1.586-.189-1.668-.043.155.406-.687.198-.471-.089.093-.142.272-.209.384-2.031,3.416-4.19,6.756-6.33,10.103-8.84,13.828-17.808,27.575-26.815,41.295-5.078,7.735-10.172,15.46-15.319,23.149-1.723,2.574,2.433,4.98,4.145,2.423,9.789-14.623,19.419-29.353,29.007-44.109,4.229-6.509,8.448-13.024,12.632-19.562,2.282-3.565,4.665-7.099,6.767-10.776.323-.565.644-1.152.643-1.824-.002-1.517-1.506-2.996-2.369-4.088-1.272-1.611-2.601-3.178-3.957-4.719-1.016-1.154-2.03-2.427-3.237-3.393v3.394c3.238-2.88,6.492-5.752,9.61-8.763.931-.899,2.326-1.989,2.675-3.298.41-1.534-.963-3.541-1.69-4.854-4.079-7.363-9.374-14.34-14.973-20.605-1.242-1.39-2.524-2.768-3.947-3.976-.992-.843-2.228-1.917-3.569-2.137-1.183-.194-2.709.294-2.952,1.676-3.143,17.858-7.973,35.258-13.614,52.476-5.98,18.249-12.444,36.39-19.801,54.133-1.439,3.469-2.932,6.936-4.531,10.352-.876,1.872-1.763,3.629-2.333,5.628-.926,3.252-1.698,6.51-2.114,9.869-.159,1.289,1.217,2.4,2.4,2.4,1.43,0,2.24-1.108,2.4-2.4h0Z"/><path class="f" d="M141.883,241.883c-37.781.273-75.379.493-88.729.538-2.124.007-3.834,1.731-3.826,3.855.077,21.69,1.124,96.753,1.92,124.344.061,2.107,1.802,3.764,3.909,3.731,12.065-.186,49.432-.071,86.726.056,37.294-.128,74.661-.242,86.726-.056,2.107.033,3.848-1.625,3.909-3.731.797-27.591,1.843-102.655,1.92-124.344.008-2.124-1.702-3.848-3.826-3.855-13.35-.045-50.948-.265-88.729-.538Z"/><path class="e" d="M141.883,239.483c-26.421.191-52.843.368-79.264.497-1.985.01-3.971.019-5.956.027-1.846.008-3.973-.239-5.714.438-2.736,1.063-4.031,3.598-4.019,6.421.005,1.286.013,2.572.022,3.858.051,7.434.133,14.868.221,22.302.234,19.872.524,39.743.87,59.613.155,8.9.321,17.8.522,26.7.076,3.386.157,6.771.252,10.156.083,2.987,1.042,5.667,4.06,6.834,1.684.651,3.659.402,5.438.386,24.214-.219,48.436-.023,72.651.057,27.532.091,55.065-.16,82.597-.111,4.101.007,8.202.018,12.303.058,1.99.019,4.09.257,5.891-.779,2.54-1.461,3.124-3.925,3.199-6.637.212-7.645.368-15.291.516-22.937.387-19.928.69-39.859.953-59.789.115-8.747.222-17.494.308-26.241.033-3.326.063-6.651.085-9.977.008-1.263.03-2.527.021-3.79-.021-2.917-1.724-5.538-4.617-6.335-1.69-.465-3.715-.22-5.456-.227-2.014-.009-4.029-.018-6.043-.028-5.181-.026-10.362-.054-15.544-.083-13.678-.078-27.357-.165-41.035-.257-7.42-.05-14.84-.102-22.26-.155-3.089-.022-3.093,4.778,0,4.8,26.039.188,52.079.362,78.119.492,1.944.01,3.887.019,5.831.028,1.572.007,3.214-.123,4.78.019,1.588.144,1.426,1.636,1.42,2.896-.006,1.315-.015,2.631-.024,3.946-.054,7.408-.136,14.816-.224,22.223-.231,19.373-.513,38.745-.849,58.117-.152,8.737-.314,17.474-.508,26.211-.076,3.435-.157,6.87-.25,10.304-.031,1.144.302,3.119-1.22,3.423-.648.13-1.441-.006-2.104-.013-.828-.009-1.656-.017-2.485-.023-23.854-.185-47.713-.013-71.567.066-27.045.089-54.091-.15-81.136-.113-4.236.006-8.473.016-12.709.051-1.286.011-2.931.294-4.178.01-1.577-.359-1.167-2.59-1.2-3.8-.203-7.591-.358-15.183-.504-22.775-.375-19.483-.671-38.968-.929-58.453-.113-8.528-.217-17.056-.303-25.585-.034-3.341-.064-6.682-.088-10.022-.009-1.268-.017-2.535-.023-3.803-.007-1.463.043-2.639,1.78-2.661,22.196-.271,44.4-.236,66.597-.385,7.258-.049,14.516-.1,21.774-.152,3.087-.022,3.094-4.822,0-4.8Z"/><path class="e" d="M67.551,363.174c18.268-.114,36.538-.017,54.806.04,22.388.069,44.775-.036,67.163-.068,8.899-.013,17.797-.027,26.696.029,3.089.019,3.093-4.781,0-4.8-18.268-.114-36.538-.017-54.806.04-22.388.069-44.775-.036-67.163-.068-8.899-.013-17.797-.027-26.696.029-3.088.019-3.094,4.819,0,4.8h0Z"/><path class="e" d="M141.883,295.069c-2.759.026-5.519.063-8.279.066-1.301.001-2.395,1.099-2.4,2.4-.011,2.895-.015,5.789-.012,8.684.002,1.7.005,3.401.02,5.101.005.611-.002,1.225.025,1.835.072,1.607,1.055,2.631,2.694,2.631,4.96,0,9.921-.034,14.881-.011.835.004,1.767.136,2.52-.304,1.159-.678,1.192-1.897,1.208-3.074.022-1.592.026-3.184.03-4.776.008-3.362.004-6.724-.009-10.085-.005-1.298-1.096-2.399-2.4-2.4-2.759-.003-5.519-.04-8.279-.066-1.297-.012-2.4,1.112-2.4,2.4,0,1.312,1.099,2.388,2.4,2.4,2.759.026,5.519.063,8.279.066l-2.4-2.4c.021,5.285.092,10.579-.039,15.863l.328-1.211h0c.691-.395,1.382-.791,2.072-1.188-.909-.084-1.849-.026-2.76-.026-1.826.001-3.652.018-5.478.018-1.783,0-3.566-.017-5.349-.018-.954,0-1.938-.062-2.89.026l2.072,1.189h0c.109.403.218.807.328,1.21-.131-5.284-.06-10.578-.039-15.863l-2.4,2.4c2.759-.003,5.519-.04,8.279-.066,1.297-.012,2.4-1.094,2.4-2.4,0-1.292-1.098-2.412-2.4-2.4Z"/></g></svg>